<svg width="163.735009765625px" height="141.2099609375px" xmlns="http://www.w3.org/2000/svg" viewBox="168.1324951171875 4.39501953125 163.735009765625 141.2099609375" style="background: rgba(0, 0, 0, 0);" preserveAspectRatio="xMidYMid"><defs><filter id="editing-extrusion" x="-100%" y="-100%" width="300%" height="300%"><feFlood result="color1" flood-color="#000000"></feFlood><feConvolveMatrix order="8,8" divisor="1" kernelMatrix="1 0 0 0 0 0 0 0 0 1 0 0 0 0 0 0 0 0 1 0 0 0 0 0 0 0 0 1 0 0 0 0 0 0 0 0 1 0 0 0 0 0 0 0 0 1 0 0 0 0 0 0 0 0 1 0 0 0 0 0 0 0 0 1" in="SourceAlpha" result="extrude"></feConvolveMatrix><feComposite in="color1" in2="extrude" result="comp-extrude" operator="in"></feComposite><feOffset dx="4" dy="4" in="comp-extrude" result="offset-extrude"></feOffset><feMerge><feMergeNode in="offset-extrude"></feMergeNode><feMergeNode in="SourceGraphic"></feMergeNode></feMerge></filter></defs><g filter="url(#editing-extrusion)"><g transform="translate(196.72839081287384, 98.90999984741211)"><path d="M4.06-41.50L4.06-41.50L4.06-41.50Q8.69-42.50 12.81-42.50L12.81-42.50L12.81-42.50Q16.94-42.50 20.16-42.19L20.16-42.19L20.16-42.19Q23.38-41.88 26.63-41L26.63-41L26.63-41Q33.50-39.06 35.13-35.75L35.13-35.75L35.13-35.75Q35.56-35.06 35.56-34.13L35.56-34.13L35.56-34.13Q35.56-31.38 30.75-28.19L30.75-28.19L30.75-28.19Q27.56-26.06 21.63-23.88L21.63-23.88L21.63-23.88Q36.19-23.06 41.38-19.63L41.38-19.63L41.38-19.63Q44.25-17.81 44.25-15.38L44.25-15.38L44.25-15.38Q44.25-12 39.50-8.38L39.50-8.38L39.50-8.38Q34.31-4.50 26.25-1.94L26.25-1.94L26.25-1.94Q18.81 0.44 12.44 0.44L12.44 0.44L12.44 0.44Q7.56 0.44 4.06-1L4.06-1L4.06-1Q3.94-5 3.75-9.25L3.75-9.25L3.75-9.25Q3.25-18.69 3.25-25.16L3.25-25.16L3.25-25.16Q3.25-31.63 3.69-38.63L3.69-38.63L3.69-38.63Q3-38.63 2.44-38.78L2.44-38.78L2.44-38.78Q1.88-38.94 1.88-40L1.88-40L1.88-40Q1.88-41.50 4.06-41.50ZM8.19-18.69L9.69-4.13L9.69-4.13Q19.75-4.69 26.19-6.53L26.19-6.53L26.19-6.53Q32.63-8.38 35.47-10.53L35.47-10.53L35.47-10.53Q38.31-12.69 38.31-14.69L38.31-14.69L38.31-14.69Q38.31-17.31 34.56-18.88L34.56-18.88L34.56-18.88Q30.50-20.50 23.78-20.50L23.78-20.50L23.78-20.50Q17.06-20.50 8.19-18.69L8.19-18.69ZM15.50-38.44L15.50-38.44L13.94-38.44L13.94-38.44Q8.81-38.44 8.19-37.38L8.19-37.38L7.56-24.81L7.56-24.81Q13.19-24.81 21.25-27.50L21.25-27.50L21.25-27.50Q26.50-29.31 28.94-31.50L28.94-31.50L28.94-31.50Q30.19-32.63 30.19-33.81L30.19-33.81L30.19-33.81Q30.19-35 29.28-35.78L29.28-35.78L29.28-35.78Q28.38-36.56 26.97-37.06L26.97-37.06L26.97-37.06Q25.56-37.56 23.84-37.84L23.84-37.84L23.84-37.84Q22.13-38.13 20.50-38.25L20.50-38.25L20.50-38.25Q18-38.44 15.50-38.44ZM93.19-10.38L93.19-10.38L93.19-10.38Q96.31-20.50 100.44-47.38L100.44-47.38L100.44-47.38Q104.38-47.38 104.56-44.94L104.56-44.94L104.56-44.94Q104.63-44.19 104.66-43.88L104.66-43.88L104.66-43.88Q104.69-43.56 104.44-41.72L104.44-41.72L104.44-41.72Q104.19-39.88 103.72-36.56L103.72-36.56L103.72-36.56Q103.25-33.25 102.56-28.88L102.56-28.88L102.56-28.88Q101.88-24.50 101-19.75L101-19.75L101-19.75Q98.88-8.56 96.63-0.88L96.63-0.88L96.63-0.88Q94.38 0.69 93.13-0.38L93.13-0.38L93.13-0.38Q92.56-0.94 92.13-1.91L92.13-1.91L92.13-1.91Q91.69-2.88 91.13-4.13L91.13-4.13L91.13-4.13Q90.31-5.19 88.13-9.75L88.13-9.75L88.13-9.75Q85.94-14.31 84.59-17L84.59-17L84.59-17Q83.25-19.69 82-22L82-22L82-22Q79.13-27.19 77.19-28.06L77.19-28.06L77.19-28.06Q74.94-24.56 69.19-8.88L69.19-8.88L69.19-8.88Q68.19-6.13 67.38-3.78L67.38-3.78L67.38-3.78Q66.56-1.44 66 0L66 0L62.13-0.19L46.50-36.31L46.50-36.31Q46.38-36.63 46.38-36.94L46.38-36.94L46.38-36.94Q46.38-37.25 46.59-37.56L46.59-37.56L46.59-37.56Q46.81-37.88 47.38-38.13L47.38-38.13L47.38-38.13Q48.44-38.50 49.50-38.50L49.50-38.50L49.50-38.50Q50.56-38.50 51.03-38.09L51.03-38.09L51.03-38.09Q51.50-37.69 51.78-37.06L51.78-37.06L51.78-37.06Q52.06-36.44 52.25-35.69L52.25-35.69L52.25-35.69Q52.44-34.94 52.97-33.75L52.97-33.75L52.97-33.75Q53.50-32.56 54.53-30.25L54.53-30.25L54.53-30.25Q55.56-27.94 56.75-25.38L56.75-25.38L56.75-25.38Q57.94-22.81 59.13-20.28L59.13-20.28L59.13-20.28Q60.31-17.75 61.38-15.63L61.38-15.63L61.38-15.63Q63.63-10.94 64.19-10.38L64.19-10.38L64.19-10.38Q71.44-28.25 73.13-31.59L73.13-31.59L73.13-31.59Q74.81-34.94 75.25-35.69L75.25-35.69L75.25-35.69Q75.94-36.75 76.31-36.75L76.31-36.75L76.31-36.75Q79-36.75 85.38-24.75L85.38-24.75L85.38-24.75Q87.13-21.56 88.63-18.63L88.63-18.63L88.63-18.63Q92.31-11.50 93.19-10.38Z" fill="#64ffda"></path></g></g><style>text {
  font-size: 64px;
  font-family: Arial Black;
  dominant-baseline: central;
  text-anchor: middle;
}</style></svg>